<svg width="16" height="17" viewBox="0 0 16 17" fill="none" xmlns="http://www.w3.org/2000/svg">
<path id="Vector" d="M8.1368 4.68162C6.02166 4.68162 4.31558 6.38494 4.31558 8.49666C4.31558 10.6084 6.02166 12.3117 8.1368 12.3117C10.2519 12.3117 11.958 10.6084 11.958 8.49666C11.958 6.38494 10.2519 4.68162 8.1368 4.68162ZM8.1368 10.9769C6.76994 10.9769 5.65251 9.86463 5.65251 8.49666C5.65251 7.12869 6.76661 6.01639 8.1368 6.01639C9.50698 6.01639 10.6211 7.12869 10.6211 8.49666C10.6211 9.86463 9.50366 10.9769 8.1368 10.9769ZM13.0056 4.52557C13.0056 5.02029 12.6065 5.41541 12.1143 5.41541C11.6188 5.41541 11.223 5.01697 11.223 4.52557C11.223 4.03416 11.6221 3.63572 12.1143 3.63572C12.6065 3.63572 13.0056 4.03416 13.0056 4.52557ZM15.5365 5.42869C15.4799 4.2367 15.2072 3.18084 14.3326 2.31092C13.4612 1.441 12.4037 1.16873 11.2097 1.10897C9.97923 1.03924 6.29104 1.03924 5.06053 1.10897C3.86994 1.16541 2.81236 1.43768 1.93771 2.3076C1.06305 3.17752 0.793669 4.23338 0.733807 5.42537C0.663967 6.65389 0.663967 10.3361 0.733807 11.5646C0.790343 12.7566 1.06305 13.8125 1.93771 14.6824C2.81236 15.5523 3.86661 15.8246 5.06053 15.8844C6.29104 15.9541 9.97923 15.9541 11.2097 15.8844C12.4037 15.8279 13.4612 15.5556 14.3326 14.6824C15.2039 13.8125 15.4766 12.7566 15.5365 11.5646C15.6063 10.3361 15.6063 6.65721 15.5365 5.42869ZM13.9468 12.8828C13.6874 13.5336 13.1852 14.0349 12.53 14.2972C11.549 14.6857 9.22097 14.5961 8.1368 14.5961C7.05262 14.5961 4.72131 14.6824 3.74356 14.2972C3.09172 14.0383 2.58954 13.5369 2.32681 12.8828C1.93771 11.9033 2.0275 9.57908 2.0275 8.49666C2.0275 7.41424 1.94103 5.0867 2.32681 4.11053C2.58622 3.45975 3.0884 2.95838 3.74356 2.69608C4.72464 2.3076 7.05262 2.39725 8.1368 2.39725C9.22097 2.39725 11.5523 2.31092 12.53 2.69608C13.1819 2.95506 13.6841 3.45643 13.9468 4.11053C14.3359 5.09002 14.2461 7.41424 14.2461 8.49666C14.2461 9.57908 14.3359 11.9066 13.9468 12.8828Z" fill="black"/>
</svg>
